# xmcd CD database file
# Copyright (C) 1995-1998 Ti Kan
#
# Track frame offsets:
#	150
#	17605
#	32125
#	46642
#	63517
#	77850
#	92440
#	108825
#	124022
#	141800
#	160610
#
# Disc length: 2343 seconds
#
# Revision: 1
# Processed by: cddbd v1.4PL0 Copyright (c) Steve Scherf et al.
# Submitted via: CDex 1.30
#
DISCID=7c09250b
DTITLE=Collin Raye - Love Songs
DYEAR=2001
DGENRE=Country
TTITLE0=Love, Me
TTITLE1=In This Life
TTITLE2=Let It Be Me
TTITLE3=The Gift
TTITLE4=I Volunteer
TTITLE5=That Was A River
TTITLE6=All My Roads
TTITLE7=Survivors
TTITLE8=Dreaming My Dreams With You
TTITLE9=And I Love You So
TTITLE10=Open Arms
EXTD=\nYEAR: 2001  ID3G:   2
EXTT0=
EXTT1=
EXTT2=
EXTT3=
EXTT4=
EXTT5=
EXTT6=
EXTT7=
EXTT8=
EXTT9=
EXTT10=
PLAYORDER=
